<svg xmlns="http://www.w3.org/2000/svg" xmlns:xlink="http://www.w3.org/1999/xlink" style="vertical-align:-1.755ex" width="38.646ex" height="5.509ex" viewBox="0 -1616.6 16639.4 2372"><defs><path id="a" stroke-width="1" d="M370 305h-21l-36 15-16 38q0 23 15 38 5 5 5 6t-10 2q-26 4-49 4-49 0-80-32-47-47-47-157 0-82 31-129 41-61 110-61 41 0 66 26t36 62q2 8 5 10t16 2h14q6-6 6-9 0-4-4-16t-16-33-29-38-48-31-69-13q-86 0-150 64T34 214q0 104 65 169t151 65 120-27 34-64q0-23-17-37z"/><path id="b" stroke-width="1" d="M295 316q0 40-27 69t-78 29q-36 0-62-13-30-19-30-52-1-5 0-13t16-24 43-25q18-5 44-9t44-9 32-13q17-8 33-20t32-41 17-62q0-62-38-102T198-10h-8q-52 0-96 36l-8-7-9-9Q71 4 65-1L54-11H42q-3 0-9 6v137q0 21 2 25t10 5h9q12 0 16-4t5-12 7-27 19-42q35-51 97-51 97 0 97 78 0 29-18 47-20 24-83 36t-83 23q-36 17-57 46t-21 62q0 39 17 66t43 40 50 18 44 5h11q40 0 70-15l15-8 9 7q10 9 22 17h12q3 0 9-6V310l-6-6h-28q-6 6-6 12z"/><path id="c" stroke-width="1" d="M109 429q-27 0-43 18t-16 44q0 71 53 123t132 52q91 0 152-56t62-145q0-43-20-82t-48-68-80-74q-36-31-100-92l-59-56 76-1q157 0 167 5 7 2 24 89v3h40v-3q-1-3-13-91T421 3V0H50v31q0 7 6 15t30 35q29 32 50 56 9 10 34 37t34 37 29 33 28 34 23 30 21 32 15 29 13 32 7 30 3 33q0 63-34 109t-97 46q-33 0-58-17t-35-33-10-19q0-1 5-1 18 0 37-14t19-46q0-25-16-42t-45-18z"/><path id="d" stroke-width="1" d="M34 156q0 114 86 200t189 86q70 0 112-40t57-98q6-29 7-67v-29q49 74 75 166 4 14 6 16t16 3q21 0 21-8 0-9-9-39t-36-85-61-100l-11-14 1-24q2-56 8-76t19-21q14 2 26 11t17 23q2 7 5 8t15 2q20 0 20-8 0-6-6-19-12-24-35-38t-44-15h-7q-67 0-91 72l-3 7-11-8q-10-8-30-20t-45-23-58-20-64-9q-79 0-124 50T34 156zM208 26q49 0 98 21t73 43l24 22q-2 143-7 178-14 115-92 115-69 0-121-73-27-40-44-108t-18-104q0-49 25-71t62-23z"/><path id="e" stroke-width="1" d="M56 347q0 13 14 20h637q15-8 15-20 0-11-14-19l-318-1H72q-16 5-16 20zm0-194q0 15 16 20h636q14-10 14-20 0-13-15-20H70q-14 7-14 20z"/><path id="f" stroke-width="1" d="M28 218q0 55 20 100t50 73 65 42 66 15q53 0 91-18t58-50 28-64 9-71q0-7-7-14H126v-15q0-148 100-180 20-6 44-6 42 0 72 32 17 17 27 42l10 24q3 3 16 3h3q17 0 17-10 0-4-3-13-19-55-63-87t-99-32q-95 0-158 69T28 218zm305 57q-11 128-95 136h-2q-8 0-16-1t-25-8-29-21-23-41-16-66v-7h206v8z"/><path id="g" stroke-width="1" d="M56 237v13l14 20h299v150l1 150q10 13 19 13 13 0 20-15V270h298q15-8 15-20t-15-20H409V-68q-8-14-18-14h-4q-12 0-18 14v298H70q-14 7-14 20z"/></defs><g fill="currentColor" stroke="currentColor" stroke-width="0" transform="scale(1 -1)"><use xlink:href="#a"/><use x="444" xlink:href="#b"/><use x="839" xlink:href="#a"/><use x="1450" xlink:href="#c"/><use x="1950" xlink:href="#d"/><use x="2868" xlink:href="#e"/><path stroke="none" d="M4044 220h6432v60H4044z"/><g transform="translate(4104 676)"><use xlink:href="#b"/><use x="394" xlink:href="#f"/><use x="839" xlink:href="#a"/><use x="1815" y="513" transform="scale(.707)" xlink:href="#c"/><use x="1904" xlink:href="#d"/><use x="2766" xlink:href="#g"/><g transform="translate(3767)"><use xlink:href="#a"/><use x="444" xlink:href="#b"/><use x="839" xlink:href="#a"/><use x="1815" y="513" transform="scale(.707)" xlink:href="#c"/></g><use x="5671" xlink:href="#d"/></g><g transform="translate(4752 -686)"><use xlink:href="#c"/><g transform="translate(667)"><use xlink:href="#b"/><use x="394" xlink:href="#f"/><use x="839" xlink:href="#a"/></g><use x="2117" xlink:href="#d"/><g transform="translate(2924)"><use xlink:href="#a"/><use x="444" xlink:href="#b"/><use x="839" xlink:href="#a"/></g><use x="4374" xlink:href="#d"/></g><use x="10875" xlink:href="#e"/><g><g transform="translate(12050)"><path stroke="none" d="M0 220h4468v60H0z"/><g transform="translate(60 676)"><use xlink:href="#b"/><use x="394" xlink:href="#f"/><use x="839" xlink:href="#a"/><use x="1450" xlink:href="#d"/><g transform="translate(2257)"><use xlink:href="#a"/><use x="444" xlink:href="#b"/><use x="839" xlink:href="#a"/></g><use x="3707" xlink:href="#d"/></g><use x="1983" y="-686" xlink:href="#c"/></g></g></g></svg>